# xmcd CD database file
#
# Track frame offsets:
#	150
#	22725
#	49625
#	68790
#	97805
#	120158
#	155859
#	182613
#	230847
#	257965
#	292930
#
# Disc length: 4197 seconds
#
# Revision: 0
# Processed by: cddbd v1.5.2PL0 Copyright (c) Steve Scherf et al.
# Submitted via: CDex 1.51
#
DISCID=8a10630b
DTITLE=Various Artist - Blue Note Highlights [CD6) Bands and Leaders #1
DYEAR=2009
DGENRE=Jazz
TTITLE0=Pentatonic - Donald Byrd
TTITLE1=Big Bertha - Duke Pearson
TTITLE2=Blues for Del - Stanley Turrentine
TTITLE3=Lester Left Town - Art Blakey And The Jazz Messengers
TTITLE4=The Breakdown - Hank Mobley
TTITLE5=With A Song in My Heart - Sonny Clark
TTITLE6=On The Spur Of The Moment - Horace Parlan
TTITLE7=Ezz-Thetic - Grant Green
TTITLE8=The Eye Of The Hurricane - Herbie Hancock
TTITLE9=A Subtle One (Instrumental) - Jimmy Smith
TTITLE10=Cookin' At The Continental - Horace Silver Quintet
EXTD=YEAR: 2009
EXTT0=
EXTT1=
EXTT2=
EXTT3=
EXTT4=
EXTT5=
EXTT6=
EXTT7=
EXTT8=
EXTT9=
EXTT10=
PLAYORDER=
